<?xml version="1.0" encoding="UTF-8" standalone="no"?>
<svg
   viewBox="0 0 576 512"
   version="1.1"
   id="svg1"
   sodipodi:docname="camera.svg"
   inkscape:version="1.4 (e7c3feb1, 2024-10-09)"
   xmlns:inkscape="http://www.inkscape.org/namespaces/inkscape"
   xmlns:sodipodi="http://sodipodi.sourceforge.net/DTD/sodipodi-0.dtd"
   xmlns="http://www.w3.org/2000/svg"
   xmlns:svg="http://www.w3.org/2000/svg">
  <defs
     id="defs1" />
  <sodipodi:namedview
     id="namedview1"
     pagecolor="#ffffff"
     bordercolor="#000000"
     borderopacity="0.25"
     inkscape:showpageshadow="2"
     inkscape:pageopacity="0.0"
     inkscape:pagecheckerboard="0"
     inkscape:deskcolor="#d1d1d1"
     inkscape:zoom="0.273009"
     inkscape:cx="238.08739"
     inkscape:cy="316.83938"
     inkscape:window-width="1472"
     inkscape:window-height="920"
     inkscape:window-x="0"
     inkscape:window-y="36"
     inkscape:window-maximized="0"
     inkscape:current-layer="svg1" />
  <!--!Font Awesome Pro 6.7.2 by @fontawesome - https://fontawesome.com License - https://fontawesome.com/license (Commercial License) Copyright 2025 Fonticons, Inc.-->
  <path
     d="m 453.77776,84.222211 a 61.11112,61.11112 0 1 1 0,122.222239 61.11112,61.11112 0 1 1 0,-122.222239 z M 239.88889,267.55555 H 453.77776 C 521.28646,267.55555 576,212.84201 576,145.33333 576,77.82466 521.28646,23.111109 453.77776,23.111109 c -46.02429,0 -86.12846,25.399306 -106.94442,63.020839 -20.81599,-37.621533 -60.92015,-63.020839 -106.94445,-63.020839 -67.50868,0 -122.22222,54.713551 -122.22222,122.222221 0,67.50868 54.71354,122.22222 122.22222,122.22222 z m 0,-183.333339 a 61.11112,61.11112 0 1 1 0,122.222239 61.11112,61.11112 0 1 1 0,-122.222239 z M 42.901037,270.80208 c -10.312499,5.15625 -16.901041,15.75521 -16.901041,27.30903 v 183.33333 c 0,11.55382 6.493056,22.15279 16.901041,27.30904 10.407993,5.15624 22.725695,4.1059 31.987851,-2.86459 l 61.111102,-45.83334 12.22223,-9.16667 v -15.27777 -91.66666 -15.2778 L 135.99999,319.5 74.888888,273.66666 C 65.626732,266.69617 53.21354,265.64584 42.901037,270.80208 Z M 514.88889,298.11111 H 453.77776 239.88889 c -33.7066,0 -61.11111,27.40451 -61.11111,61.11112 v 91.66665 c 0,33.70661 27.40451,61.11112 61.11111,61.11112 h 213.88887 c 33.70661,0 61.11113,-27.40451 61.11113,-61.11112 v -91.66665 h 30.55554 c 16.90105,0 30.55557,-13.65452 30.55557,-30.55558 0,-16.90103 -13.65452,-30.55554 -30.55557,-30.55554 z"
     id="path1"
     style="stroke-width:0.954862" />
  <path
     d="M 16.335525,0.0360625 C 7.3203374,0.0360625 0,7.3563999 0,16.37159 v 92.31551 c 0,6.63518 3.9666875,12.54914 10.097013,15.0734 6.130325,2.52425 13.126112,1.15394 17.814012,-3.53396 L 120.22654,27.911027 C 124.87838,23.25919 126.28475,16.22734 123.7605,10.097013 121.23624,3.9666875 115.28623,0.0360625 108.6871,0 H 16.371588 Z"
     id="path1-9"
     style="stroke-width:0.509976" />
</svg>
